<svg version="1.1" xmlns="http://www.w3.org/2000/svg" xmlns:xlink="http://www.w3.org/1999/xlink" width="303.32853" height="72.08059" viewBox="0,0,303.32853,72.08059"><g transform="translate(-86.28247,-121.7709)"><g data-paper-data="{&quot;isPaintingLayer&quot;:true}" fill-rule="nonzero" stroke-linejoin="miter" stroke-miterlimit="10" stroke-dasharray="" stroke-dashoffset="0" style="mix-blend-mode: normal"><path d="M95.88945,189.30022l-5.85698,-53.28331" fill="none" stroke="#84c590" stroke-width="7.5" stroke-linecap="round"/><path d="M123.34468,136.24071l-5.85698,53.28331" data-paper-data="{&quot;index&quot;:null}" fill="none" stroke="#84c590" stroke-width="7.5" stroke-linecap="round"/><path d="M107.5096,172.26442l9.52375,17.09027" data-paper-data="{&quot;index&quot;:null}" fill="none" stroke="#84c590" stroke-width="7.5" stroke-linecap="round"/><path d="M159.64608,187.48157h-21.9506l-0.25524,-50.85221l22.20584,-0.64779" fill="none" stroke="#84c590" stroke-width="7.5" stroke-linecap="round"/><path d="M148.22623,161.20746l8.3008,-0.2851" fill="none" stroke="#84c590" stroke-width="7.5" stroke-linecap="round"/><g stroke-linecap="butt"><path d="M207.99028,188.12361c-0.6531,-0.47116 -0.61202,-1.64391 0.09173,-2.61943c0.70376,-0.97551 1.80371,-1.38437 2.4568,-0.91321c0.6531,0.47116 0.61202,1.64392 -0.09173,2.61943c-0.70376,0.97551 -1.80371,1.38436 -2.4568,0.9132z" fill="#84c590" stroke="#588360" stroke-width="1"/><path d="M206.03416,187.13252c-0.67279,0 -1.21819,-0.96687 -1.21819,-2.15954c0,-1.19267 0.54541,-2.15954 1.21819,-2.15954c0.67279,0 1.2182,0.96686 1.2182,2.15954c0,1.19268 -0.54541,2.15954 -1.2182,2.15954z" fill="#84c590" stroke="#588360" stroke-width="1"/><path d="M203.95789,174.92189c0,1.00919 -1.36351,1.8273 -3.0455,1.8273c-1.68198,0 -3.04549,-0.8181 -3.04549,-1.8273c0,-1.00919 1.36351,-1.8273 3.04549,-1.8273c1.68198,0 3.0455,0.8181 3.0455,1.8273z" fill="#84c590" stroke="#588360" stroke-width="1"/><path d="M210.8995,187.57026c0,1.52907 -3.16087,2.76862 -7.06001,2.76862c-3.89915,0 -7.06001,-1.23955 -7.06001,-2.76862c0,-1.52907 3.16087,-2.76863 7.06001,-2.76863c3.89915,0 7.06001,1.23955 7.06001,2.76863z" fill="#caf0ca" stroke="#588360" stroke-width="1"/><path d="M205.11128,180.07783c0,0.78492 -1.28087,1.42124 -2.86091,1.42124c-1.58004,0 -2.86092,-0.63631 -2.86092,-1.42124c0,-0.78492 1.28087,-1.42122 2.86092,-1.42122c1.58004,0 2.86091,0.6363 2.86091,1.42122z" fill="#84c590" stroke="#588360" stroke-width="1"/><path d="M204.11898,184.93485c0,5.19885 -5.43091,8.41664 -12.40347,8.41664c-6.97257,0 -12.62497,-4.2145 -12.62497,-9.41335c0,-5.19885 1.83168,-12.95719 8.80425,-12.95719c5.37843,0 8.36862,-4.63093 11.22717,-0.13394c0.84725,1.33288 4.99703,12.89922 4.99703,14.08784z" fill="#caf0ca" stroke="#588360" stroke-width="1"/><path d="M195.29878,122.51241c1.60659,-0.64959 3.76897,2.79796 4.54084,4.70698c0.26934,0.66612 1.46468,4.78934 1.22412,5.17232c-0.44886,0.71459 -3.11509,-1.83776 -4.16108,-1.41483c-1.60659,0.64959 -8.04614,1.45493 -8.818,-0.45409c-0.45756,-1.13166 1.74747,-4.47398 3.47278,-6.06137c1.18515,-1.09042 3.08714,-1.6845 3.74133,-1.94902z" fill="#84c590" stroke="#588360" stroke-width="1"/><path d="M214.1758,132.5667c1.65453,0.51544 1.2153,5.28003 0.60285,7.246c-0.21371,0.686 -0.3371,2.95618 -0.76586,3.10005c-0.80004,0.26842 -2.11365,-2.10252 -3.19085,-2.43811c-1.65453,-0.51544 -5.52075,-3.97705 -4.90828,-5.94301c0.61246,-1.96596 6.60763,-2.48036 8.26214,-1.96492z" fill="#84c590" stroke="#588360" stroke-width="1"/><path d="M221.5427,150.0078c0.95598,1.44541 -2.16332,4.57317 -3.88082,5.70909c-1.71749,1.13593 -2.52804,-0.54337 -3.48403,-1.98878c-0.95598,-1.44541 -0.56023,-4.54218 1.15726,-5.67812c1.7175,-1.13593 5.2516,0.5124 6.20758,1.95781z" fill="#84c590" stroke="#588360" stroke-width="1"/><path d="M218.74581,166.13158c0,1.73295 -4.32717,2.62099 -6.38632,2.62099c-2.05915,0 -1.80883,-1.84782 -1.80883,-3.58078c0,-1.73295 2.03842,-4.09758 4.09758,-4.09758c2.05915,0 4.09758,3.32442 4.09758,5.05737z" fill="#84c590" stroke="#588360" stroke-width="1"/><path d="M217.02519,154.23015c0,4.48526 -1.48824,9.08969 -4.21092,12.48652c-4.2486,5.30057 -11.34129,8.30763 -19.23179,8.30763c-6.45623,0 -15.67861,-1.15995 -20.9298,-4.87714c-5.27936,-3.73711 -6.5703,-10.0468 -6.5703,-15.8043c0,-5.85792 1.65602,-13.47027 6.65342,-18.19788c4.79984,-4.54074 12.7004,-6.87905 19.1561,-6.31552c6.90387,0.60265 14.09309,3.36258 18.83506,8.56345c4.11711,4.51556 6.29824,10.50012 6.29824,15.83725z" fill="#caf0ca" stroke="#588360" stroke-width="1"/><path d="M206.10673,157.22296c0,1.33538 -1.44615,2.41793 -3.23007,2.41793c-1.78391,0 -3.23007,-1.08255 -3.23007,-2.41793c0,-1.33538 1.44616,-2.41794 3.23007,-2.41794c1.78391,0 3.23007,1.08255 3.23007,2.41794z" fill="#ff8b8b" stroke="#000000" stroke-width="0"/><path d="M203.59651,153.87448c0,2.01415 -1.66927,3.64693 -3.72843,3.64693c-2.05915,0 -3.72842,-1.63279 -3.72842,-3.64693c0,-2.01415 1.66927,-3.64693 3.72842,-3.64693c2.05915,0 3.72843,1.63279 3.72843,3.64693z" fill="#588360" stroke="#000000" stroke-width="0"/><path d="M177.57138,153.76374c0,2.01415 -1.66927,3.64692 -3.72843,3.64692c-2.05915,0 -3.72842,-1.63278 -3.72842,-3.64692c0,-2.01415 1.66927,-3.64693 3.72842,-3.64693c2.05915,0 3.72843,1.63279 3.72843,3.64693z" fill="#588360" stroke="none" stroke-width="0"/><path d="M194.93033,177.35115c0.02769,-0.02374 0.05883,-0.04535 0.09263,-0.06477c0.1014,-0.12853 0.25855,-0.21104 0.43498,-0.21104c0.14205,0 0.2716,0.05349 0.36962,0.14143c0.24302,0.09614 0.36282,0.32716 0.09468,0.72184c-0.42827,0.63038 -1.06725,1.19637 -1.52828,1.82229c-0.18711,0.25404 -0.44518,0.68666 -0.01953,0.89961c1.17631,0.58855 3.11038,-0.32975 4.31286,-0.61257c0.103,-0.02422 0.75713,-0.32746 0.84646,-0.31471c0.51681,0.07383 0.65524,0.2584 0.58141,0.77522c-0.07947,0.55624 -1.42674,0.6531 -1.8253,0.7577c-1.3006,0.34132 -2.33994,0.7444 -3.75238,0.57053c-0.68284,-0.08406 -1.50357,-0.5832 -1.50357,-1.39082c0,-1.4207 1.2168,-2.06746 1.89597,-3.08621z" fill="#588360" stroke="none" stroke-width="0"/><path d="M186.76433,177.75943c0.66314,0.80891 1.9828,2.12026 1.27772,3.28141c-1.10283,1.81621 -4.05223,0.83849 -5.46521,0.58227c-0.44102,-0.07997 -1.89774,-0.86273 -1.60049,-1.45723c0.44099,-0.88199 1.36313,0.28957 1.83451,0.37405c1.52795,0.27383 2.86654,0.94602 4.15918,0.09661c0.70493,-0.46321 -1.1179,-2.19939 -1.5656,-2.45183c-0.14635,-0.08251 -0.57514,-0.40401 -0.46723,-0.61984c-0.00056,-0.01018 -0.00083,-0.02042 -0.00083,-0.03073c0,-0.30581 0.24792,-0.55373 0.55373,-0.55373c0.16771,-0.10517 1.15357,0.63183 1.27423,0.77901z" fill="#588360" stroke="none" stroke-width="0"/><path d="M186.96495,189.32513c0,2.01073 -1.17873,3.53001 -3.86226,3.53001c-2.68352,0 -4.3329,-1.90689 -4.96969,-4.27754c-0.20378,-0.75865 -0.3878,-2.50971 0.17684,-3.10454c0.30633,-0.32271 1.65368,0.6397 1.94124,0.26276c0.53915,-0.70672 0.53936,-2.32172 1.60573,-2.32172c0.59974,0 0.96397,1.17335 1.65296,1.22261c0.6847,0.04896 1.52814,-1.00001 2.09589,-0.51983c1.41725,1.19871 1.35929,4.09345 1.35929,5.20823z" fill="#caf0ca" stroke="#588360" stroke-width="1"/><path d="M200.71642,191.19358c-1.11133,1.67569 -2.93337,2.29035 -5.16975,0.80715c-2.23639,-1.4832 -2.55701,-3.98398 -1.7774,-6.31158c0.24948,-0.74489 1.06394,-2.30586 1.86326,-2.48952c0.43365,-0.09962 1.02458,1.44711 1.47256,1.2919c0.83991,-0.29098 1.73272,-1.63675 2.6214,-1.04737c0.4998,0.33147 0.15482,1.51064 0.70179,1.9325c0.54355,0.41924 1.82625,0.01122 2.03397,0.72519c0.51857,1.78229 -1.12968,4.16267 -1.74583,5.09171z" fill="#caf0ca" stroke="#588360" stroke-width="1"/><path d="M181.28125,156.25928c0.90489,-0.04238 2.48765,0.90051 3.70392,0.93862c0.75485,0.02365 1.50163,-0.01001 2.25806,-0.02461c0.88194,-0.01701 1.57784,-0.25188 2.37135,-0.54542c0.19712,-0.07293 0.58848,-0.40954 0.78509,-0.344c2.0302,0.67673 -1.22286,1.71295 -1.65239,1.82078c-1.81034,0.4545 -4.11281,0.43621 -5.91407,-0.17955c-0.2057,-0.07032 -1.13086,-0.3387 -1.64264,-0.56833c-0.09977,-0.02236 -0.18937,-0.07166 -0.26077,-0.13985c-0.10555,-0.10083 -0.17132,-0.24298 -0.17132,-0.40047c0,-0.27194 0.19602,-0.4981 0.45448,-0.54486c0.02146,-0.00693 0.04415,-0.01119 0.06828,-0.01231z" fill="#588360" stroke="none" stroke-width="0"/></g><path d="M227.66667,136.52275h31.13572" fill="none" stroke="#84c590" stroke-width="7.5" stroke-linecap="round"/><path d="M243.69532,137.5649l0.23804,50.41667" fill="none" stroke="#84c590" stroke-width="7.5" stroke-linecap="round"/><path d="M274.86863,136.09553v51.47222" fill="none" stroke="#84c590" stroke-width="7.5" stroke-linecap="round"/><path d="M297.29074,158.90109h-22.07756" fill="none" stroke="#84c590" stroke-width="7.5" stroke-linecap="round"/><path d="M301.22112,136.15109l0.22361,52.75" fill="none" stroke="#84c590" stroke-width="7.5" stroke-linecap="round"/><path d="M361.38261,136.81776l0.21855,51.83333" fill="none" stroke="#84c590" stroke-width="7.5" stroke-linecap="round"/><path d="M358.36415,137.56455c2.5634,-1.26537 5.59363,-1.99679 8.84041,-1.99679c9.2174,0 16.68958,5.89492 16.68958,13.16666c0,7.27175 -7.47218,13.16666 -16.68958,13.16666c-3.19074,0 -6.17234,-0.70639 -8.70725,-1.93174" fill="none" stroke="#84c590" stroke-width="7.5" stroke-linecap="butt"/><path d="M375.35223,160.06775l10.50877,28.17016" fill="none" stroke="#84c590" stroke-width="7.5" stroke-linecap="round"/><path d="M107.03336,172.26442l-9.52375,17.09027" data-paper-data="{&quot;index&quot;:null}" fill="none" stroke="#84c590" stroke-width="7.5" stroke-linecap="round"/><g fill="none" stroke="#84c590" stroke-width="7.5" stroke-linecap="round"><path d="M342.64608,186.98157h-21.9506l-0.25524,-50.85221l22.20584,-0.64779"/><path d="M331.22623,160.70746l8.30081,-0.2851"/></g></g></g></svg>